<svg width="100%" viewBox="0 0 680 470" xmlns="http://www.w3.org/2000/svg" role="img" font-family="ui-sans-serif,-apple-system,'Segoe UI',Roboto,Helvetica,Arial,sans-serif">
  <title>AlphaMine system architecture</title>
  <desc>A pluggable set of LLM backends drives a clockwise mining loop: the LLM client proposes alpha expressions, which are validated and evaluated against a data panel, screened by a risk-review critic, admitted to a correlation-deduplicated alpha library, and distilled into a reflection memory whose lessons feed back into the next prompt. The library is re-scored on a held-out test split to produce ranked alphas.</desc>
  <defs>
    <marker id="arrow" viewBox="0 0 10 10" refX="8" refY="5" markerWidth="6" markerHeight="6" orient="auto-start-reverse">
      <path d="M2 1L8 5L2 9" fill="none" stroke="#888780" stroke-width="1.5" stroke-linecap="round" stroke-linejoin="round"/>
    </marker>
  </defs>
  <style>
    .th{font-size:14px;font-weight:500}.ts{font-size:12px}
    .cont{fill:none;stroke:#B4B2A9;stroke-width:1;stroke-dasharray:5 4}
    .arr{stroke:#888780;stroke-width:1.5;fill:none}
    .clab,.alab{fill:#5F5E5A}
    .b-purple{fill:#EEEDFE;stroke:#534AB7}.tt-purple{fill:#3C3489}.st-purple{fill:#534AB7}
    .b-gray{fill:#F1EFE8;stroke:#5F5E5A}.tt-gray{fill:#444441}.st-gray{fill:#5F5E5A}
    .b-teal{fill:#E1F5EE;stroke:#0F6E56}.tt-teal{fill:#085041}.st-teal{fill:#0F6E56}
    .b-coral{fill:#FAECE7;stroke:#D85A30}.tt-coral{fill:#712B13}.st-coral{fill:#993C1D}
    rect{stroke-width:1}
    @media (prefers-color-scheme:dark){
      .cont{stroke:#5F5E5A}.clab,.alab{fill:#B4B2A9}
      .b-purple{fill:#3C3489;stroke:#AFA9EC}.tt-purple{fill:#EEEDFE}.st-purple{fill:#CECBF6}
      .b-gray{fill:#444441;stroke:#B4B2A9}.tt-gray{fill:#F1EFE8}.st-gray{fill:#D3D1C7}
      .b-teal{fill:#085041;stroke:#5DCAA5}.tt-teal{fill:#E1F5EE}.st-teal{fill:#9FE1CB}
      .b-coral{fill:#712B13;stroke:#F0997B}.tt-coral{fill:#FAECE7}.st-coral{fill:#F5C4B3}
    }
  </style>

  <rect class="cont" x="40" y="48" width="360" height="78" rx="8"/>
  <text class="ts clab" x="52" y="68">Backends · swap freely</text>
  <rect class="b-purple" x="52"  y="86" width="60" height="26" rx="4"/>
  <text class="ts tt-purple" x="82"  y="103" text-anchor="middle">Mock</text>
  <rect class="b-purple" x="122" y="86" width="60" height="26" rx="4"/>
  <text class="ts tt-purple" x="152" y="103" text-anchor="middle">Claude</text>
  <rect class="b-purple" x="192" y="86" width="60" height="26" rx="4"/>
  <text class="ts tt-purple" x="222" y="103" text-anchor="middle">Bedrock</text>
  <rect class="b-purple" x="262" y="86" width="60" height="26" rx="4"/>
  <text class="ts tt-purple" x="292" y="103" text-anchor="middle">OpenAI</text>
  <rect class="b-purple" x="332" y="86" width="60" height="26" rx="4"/>
  <text class="ts tt-purple" x="362" y="103" text-anchor="middle">OSS</text>
  <line class="arr" x1="121" y1="126" x2="121" y2="186" marker-end="url(#arrow)"/>

  <rect class="cont" x="30" y="150" width="620" height="180" rx="8"/>
  <text class="ts clab" x="44" y="168">Mining loop</text>

  <rect class="b-purple" x="46" y="186" width="150" height="58" rx="4"/>
  <text class="th tt-purple" x="121" y="211" text-anchor="middle">LLM client</text>
  <text class="ts st-purple" x="121" y="229" text-anchor="middle">any provider</text>

  <rect class="b-gray" x="216" y="186" width="110" height="58" rx="4"/>
  <text class="th tt-gray" x="271" y="211" text-anchor="middle">Generate</text>
  <text class="ts st-gray" x="271" y="229" text-anchor="middle">propose new</text>

  <rect class="b-gray" x="346" y="186" width="120" height="58" rx="4"/>
  <text class="th tt-gray" x="406" y="211" text-anchor="middle">Validate</text>
  <text class="ts st-gray" x="406" y="229" text-anchor="middle">safe AST eval</text>

  <rect class="b-gray" x="486" y="186" width="124" height="58" rx="4"/>
  <text class="th tt-gray" x="548" y="211" text-anchor="middle">Evaluate</text>
  <text class="ts st-gray" x="548" y="229" text-anchor="middle">IC + backtest</text>

  <rect class="b-coral" x="46" y="262" width="150" height="58" rx="4"/>
  <text class="th tt-coral" x="121" y="287" text-anchor="middle">Reflection</text>
  <text class="ts st-coral" x="121" y="305" text-anchor="middle">lessons per round</text>

  <rect class="b-teal" x="300" y="262" width="150" height="58" rx="4"/>
  <text class="th tt-teal" x="375" y="287" text-anchor="middle">Alpha library</text>
  <text class="ts st-teal" x="375" y="305" text-anchor="middle">novelty + dedup</text>

  <rect class="b-coral" x="486" y="262" width="124" height="58" rx="4"/>
  <text class="th tt-coral" x="548" y="287" text-anchor="middle">Risk review</text>
  <text class="ts st-coral" x="548" y="305" text-anchor="middle">critic gate</text>

  <line class="arr" x1="196" y1="215" x2="216" y2="215" marker-end="url(#arrow)"/>
  <line class="arr" x1="326" y1="215" x2="346" y2="215" marker-end="url(#arrow)"/>
  <line class="arr" x1="466" y1="215" x2="486" y2="215" marker-end="url(#arrow)"/>
  <line class="arr" x1="548" y1="244" x2="548" y2="262" marker-end="url(#arrow)"/>

  <line class="arr" x1="486" y1="291" x2="450" y2="291" marker-end="url(#arrow)"/>
  <text class="ts alab" x="468" y="283" text-anchor="middle">admit</text>

  <line class="arr" x1="300" y1="291" x2="196" y2="291" marker-end="url(#arrow)"/>
  <text class="ts alab" x="248" y="283" text-anchor="middle">reflect</text>

  <line class="arr" x1="121" y1="262" x2="121" y2="244" marker-end="url(#arrow)"/>
  <text class="ts alab" x="160" y="256" text-anchor="start">lessons</text>

  <rect class="b-gray" x="470" y="356" width="150" height="58" rx="4"/>
  <text class="th tt-gray" x="545" y="381" text-anchor="middle">Data panel</text>
  <text class="ts st-gray" x="545" y="399" text-anchor="middle">real or synthetic</text>
  <path class="arr" d="M618,356 V215 H612" marker-end="url(#arrow)"/>

  <rect class="b-teal" x="300" y="356" width="150" height="58" rx="4"/>
  <text class="th tt-teal" x="375" y="381" text-anchor="middle">Ranked alphas</text>
  <text class="ts st-teal" x="375" y="399" text-anchor="middle">held-out test</text>
  <line class="arr" x1="375" y1="320" x2="375" y2="356" marker-end="url(#arrow)"/>
  <text class="ts alab" x="396" y="341" text-anchor="start">score</text>

  <rect class="b-purple" x="60"  y="430" width="14" height="14" rx="3"/>
  <text class="ts clab" x="80"  y="441">Model</text>
  <rect class="b-gray"   x="150" y="430" width="14" height="14" rx="3"/>
  <text class="ts clab" x="170" y="441">Pipeline</text>
  <rect class="b-coral"  x="270" y="430" width="14" height="14" rx="3"/>
  <text class="ts clab" x="290" y="441">Agentic</text>
  <rect class="b-teal"   x="370" y="430" width="14" height="14" rx="3"/>
  <text class="ts clab" x="390" y="441">Store</text>
</svg>
